<?xml version="1.0" standalone="no"?>
<!DOCTYPE svg PUBLIC "-//W3C//DTD SVG 20010904//EN"
 "http://www.w3.org/TR/2001/REC-SVG-20010904/DTD/svg10.dtd">
<svg version="1.0" xmlns="http://www.w3.org/2000/svg"
 width="730.000000pt" height="730.000000pt" viewBox="0 0 730.000000 730.000000"
 preserveAspectRatio="xMidYMid meet">
<metadata>
Created by potrace 1.14, written by Peter Selinger 2001-2017
</metadata>
<g transform="translate(0.000000,730.000000) scale(0.100000,-0.100000)"
fill="#000000" stroke="none">
<path d="M3320 6315 c-47 -7 -107 -15 -135 -18 -70 -9 -212 -41 -331 -76 -325
-93 -701 -298 -949 -516 -124 -109 -287 -282 -372 -395 -23 -30 -51 -67 -63
-82 -11 -15 -26 -37 -33 -50 -7 -13 -29 -48 -49 -79 -126 -193 -259 -510 -307
-730 -91 -423 -41 -871 145 -1294 45 -102 149 -290 185 -335 l20 -25 -7 55
c-8 63 -8 280 -1 325 3 17 8 55 12 85 8 67 47 224 76 305 136 388 431 719 803
903 128 63 292 121 391 137 11 2 49 9 85 16 92 17 357 19 465 3 255 -38 484
-125 695 -266 185 -123 398 -360 515 -573 85 -154 153 -375 181 -590 9 -65 8
-286 0 -350 -14 -104 -18 -123 -42 -218 -39 -158 -138 -390 -202 -475 l-18
-23 -79 26 c-197 64 -361 182 -484 346 -93 123 -146 247 -180 419 -33 163 -82
263 -178 366 -210 224 -571 262 -829 86 -215 -145 -313 -372 -279 -642 53
-426 253 -793 586 -1070 121 -101 346 -235 452 -269 20 -7 37 -17 37 -22 0 -6
4 -8 9 -5 5 3 12 -1 15 -10 10 -26 0 -28 -23 -5 -12 12 -21 16 -21 10 0 -5 -5
-7 -10 -4 -6 3 -13 -1 -16 -9 -9 -23 -22 -11 -19 17 2 14 -2 24 -11 24 -7 0
-12 -5 -11 -10 1 -5 -8 -11 -21 -13 -16 -3 -21 0 -16 8 5 7 3 8 -6 3 -10 -6
-9 -11 5 -21 16 -12 21 -11 37 3 23 21 23 8 0 -20 -21 -26 -47 -35 -39 -14 4
11 0 13 -14 10 -14 -4 -18 -12 -15 -29 3 -16 0 -21 -9 -18 -8 3 -12 17 -10 37
2 18 1 24 -1 14 -3 -9 -10 -15 -15 -11 -5 3 -7 9 -5 13 3 4 -1 8 -9 8 -10 0
-12 -4 -5 -12 13 -16 2 -45 -15 -39 -24 10 -30 -19 -7 -34 12 -8 22 -19 22
-24 0 -7 -5 -6 -13 0 -10 8 -16 6 -25 -9 -7 -10 -8 -19 -3 -19 5 0 11 5 13 12
5 13 28 2 28 -13 0 -6 -4 -8 -8 -5 -4 2 -14 0 -22 -5 -11 -7 -9 -8 8 -6 27 4
43 24 35 44 -10 25 12 13 29 -16 12 -22 13 -31 5 -35 -9 -3 -9 -5 -1 -5 7 -1
19 10 28 24 9 14 21 23 27 19 6 -3 3 -11 -8 -19 -15 -11 -16 -16 -5 -27 11
-11 12 -10 7 4 -4 11 -2 18 4 18 11 0 15 -12 12 -40 -2 -13 -1 -13 8 0 5 8 7
18 5 22 -3 5 -8 20 -10 35 -4 23 -3 25 11 13 8 -7 15 -9 15 -4 1 5 9 -7 19
-26 11 -19 17 -38 14 -42 -2 -5 1 -8 7 -8 7 0 9 7 6 15 -21 51 -21 51 -4 37
13 -10 22 -11 37 -2 15 7 21 7 21 0 0 -6 -10 -15 -22 -20 -13 -5 -17 -9 -10
-9 7 -1 21 4 32 11 16 10 23 9 42 -7 l23 -20 -17 21 c-24 27 -23 37 2 22 11
-7 20 -18 20 -24 0 -7 8 -15 18 -19 14 -5 15 -4 5 6 -22 22 -14 33 9 13 19
-15 20 -16 9 -1 -7 9 -9 17 -3 17 15 0 30 -23 27 -41 -2 -9 4 -16 11 -16 8 0
14 4 14 9 0 4 -5 8 -12 8 -6 0 -3 8 7 20 17 19 35 19 35 -1 0 -6 -4 -7 -10 -4
-5 3 -10 1 -10 -5 0 -7 6 -10 14 -7 7 3 19 0 27 -6 7 -7 5 0 -4 15 -16 26 -16
27 3 25 11 -1 19 -6 17 -12 -3 -6 13 -10 39 -11 24 0 45 4 48 11 2 6 -2 12
-10 12 -7 0 -10 -5 -7 -11 4 -6 -1 -5 -10 3 -11 9 -17 10 -17 2 0 -6 -5 -11
-11 -11 -5 0 -7 5 -3 12 5 7 3 8 -6 3 -9 -6 -11 -4 -5 5 5 9 4 11 -3 6 -7 -4
-12 -3 -12 3 0 5 -8 8 -17 6 -10 -2 -18 -4 -18 -5 0 -1 -10 -3 -23 -6 -15 -3
-21 0 -16 7 4 7 -1 7 -16 -1 -18 -10 -21 -9 -15 1 6 9 3 11 -8 6 -10 -4 -21 1
-27 11 -11 16 -11 16 -6 0 3 -10 1 -20 -4 -23 -6 -4 -10 3 -10 14 0 12 -5 21
-11 21 -6 0 -8 -8 -5 -17 6 -17 5 -17 -7 -1 -12 15 -14 15 -25 0 -10 -15 -11
-15 -6 3 5 16 4 17 -5 5 -6 -8 -11 -11 -11 -7 0 4 -10 3 -22 -3 -21 -10 -21
-10 -5 3 17 14 17 15 0 22 -10 5 -24 7 -30 6 -7 -1 -13 3 -13 8 0 5 -9 8 -20
6 -11 -2 -20 1 -20 7 0 5 7 8 14 5 11 -4 13 -1 9 11 -3 9 -3 14 2 10 4 -4 14
-3 22 3 7 6 13 8 13 4 0 -4 7 -2 15 5 8 7 12 16 9 21 -3 5 -1 9 3 9 5 0 14 -9
21 -20 7 -11 17 -20 23 -20 8 0 7 5 -1 16 -8 8 -15 27 -16 42 -2 15 0 22 4 17
4 -6 16 -11 27 -13 42 -6 48 -11 35 -27 -11 -13 -10 -15 6 -12 11 2 26 7 34
10 18 8 47 4 57 -8 4 -4 2 -5 -4 -1 -16 9 -17 -8 -1 -33 10 -17 8 -23 -13 -39
-13 -11 -21 -23 -18 -27 8 -8 59 38 59 53 0 17 13 20 35 11 18 -8 18 -9 -3 -5
-16 3 -22 1 -19 -8 3 -8 -5 -19 -19 -26 -29 -16 -31 -30 -3 -30 11 0 18 4 15
9 -3 5 1 11 9 14 9 4 12 1 9 -7 -3 -7 2 -13 11 -13 8 0 14 7 13 16 -2 10 5 16
19 17 12 1 20 -2 17 -7 -2 -4 -11 -6 -19 -2 -12 4 -13 0 -6 -18 8 -23 25 -31
45 -21 4 3 2 8 -5 13 -12 7 -12 10 0 21 8 7 11 8 8 2 -4 -6 2 -19 13 -29 11
-10 20 -13 20 -7 0 6 -4 14 -10 17 -5 3 -10 12 -10 18 0 7 5 4 11 -6 9 -15 13
-16 27 -6 14 11 15 11 5 -1 -21 -23 -15 -35 7 -15 16 15 18 21 8 34 -8 11 -6
11 8 -2 15 -14 16 -19 5 -26 -11 -7 -10 -10 5 -15 11 -3 26 -18 35 -32 13 -22
17 -24 22 -10 5 12 3 15 -6 10 -8 -5 -7 -2 2 9 7 10 9 17 3 17 -6 0 -12 -3
-15 -7 -2 -5 -2 -3 -1 4 2 6 -5 14 -14 16 -12 3 -11 5 5 6 12 0 25 -4 28 -10
5 -7 14 -4 28 8 16 13 18 14 9 2 -10 -14 -10 -18 4 -23 9 -4 19 -4 22 -1 3 3
0 5 -7 5 -7 0 -9 5 -5 11 5 8 10 6 16 -5 5 -9 15 -13 21 -10 7 4 8 3 4 -2 -11
-12 -67 -14 -67 -2 0 5 -5 6 -11 2 -8 -4 -7 -9 2 -15 8 -5 9 -9 3 -9 -6 0 -11
-8 -11 -17 0 -13 3 -12 15 5 14 21 16 22 34 5 18 -16 19 -16 12 3 -7 17 -6 17
9 6 8 -8 13 -21 10 -30 -4 -14 -3 -15 5 -2 8 10 8 18 0 28 -9 10 -5 12 20 7
17 -3 34 -1 37 5 4 6 -1 7 -12 4 -15 -5 -14 -4 2 9 33 24 59 25 61 2 0 -11 4
-28 9 -38 6 -15 10 -16 17 -5 7 10 11 9 23 -6 8 -11 15 -15 15 -10 0 6 -6 16
-12 22 -10 10 -10 15 1 21 9 6 10 11 2 15 -6 4 -11 1 -11 -6 0 -10 -3 -9 -11
2 -10 13 -10 13 -6 -1 3 -9 -1 -16 -8 -16 -10 0 -11 5 -4 18 5 10 13 20 18 24
12 7 43 -24 35 -36 -3 -6 0 -16 6 -24 6 -8 9 -18 6 -24 -7 -11 20 -8 31 4 4 4
2 5 -5 1 -15 -9 -16 10 0 20 6 4 14 2 16 -4 2 -7 8 -12 14 -12 6 0 6 6 -2 14
-8 11 -9 20 -1 33 6 10 11 13 11 8 0 -6 11 -11 25 -11 20 0 24 4 19 19 -4 13
-2 17 5 13 6 -4 11 -13 11 -21 0 -7 3 -15 8 -18 4 -2 0 -2 -8 0 -11 3 -12 1
-3 -8 15 -15 38 -2 24 15 -7 8 -3 12 13 14 13 1 30 -6 37 -15 12 -14 12 -16 0
-8 -10 6 -12 4 -6 -5 5 -9 4 -11 -4 -6 -6 4 -9 12 -6 17 4 5 -1 9 -10 9 -9 0
-13 -4 -10 -10 3 -5 1 -20 -5 -32 -11 -22 -11 -23 5 -3 l16 20 16 -20 c12 -16
14 -16 10 -3 -3 10 -2 20 4 24 6 4 4 15 -6 30 -8 13 -11 24 -5 24 5 0 10 -5
10 -11 0 -5 4 -8 9 -5 5 3 12 -1 15 -10 3 -8 2 -13 -2 -10 -4 2 -8 -8 -8 -22
-1 -15 1 -21 3 -14 3 6 9 10 14 6 5 -3 9 0 9 6 0 6 4 9 10 5 5 -3 6 -13 3 -23
-3 -9 -3 -14 1 -10 6 5 9 14 15 48 1 3 5 -2 10 -9 6 -9 6 -23 -1 -35 -5 -12 3
-6 18 13 24 29 29 31 39 18 10 -14 13 -14 28 3 9 11 12 22 7 25 -6 4 -10 0
-10 -7 0 -10 -2 -10 -9 1 -7 11 -9 11 -14 0 -3 -8 -6 -9 -6 -3 -1 6 6 17 14
24 8 7 15 9 15 4 0 -5 5 -2 10 6 7 11 10 11 10 2 0 -8 5 -10 13 -6 8 5 8 2 -2
-9 -7 -9 -10 -17 -6 -17 4 0 0 -12 -10 -26 -9 -15 -12 -24 -7 -20 6 3 12 3 15
-1 2 -5 2 -2 0 6 -2 8 2 11 12 7 9 -3 13 -2 10 3 -3 5 -1 12 5 16 9 6 14 -7
11 -27 0 -5 4 -8 9 -8 6 0 10 7 10 15 0 8 5 15 11 15 5 0 8 -4 4 -9 -3 -5 0
-13 6 -17 8 -4 9 -3 5 4 -4 7 -3 12 3 12 5 0 12 -6 15 -12 3 -7 3 -3 0 10 -6
23 11 32 19 10 3 -10 8 -10 21 1 14 12 20 11 43 -10 14 -13 23 -18 19 -12 -6
12 0 15 21 12 3 0 10 7 15 16 9 15 11 15 35 0 14 -10 22 -12 19 -6 -4 6 -2 11
4 11 7 0 8 6 1 19 -6 10 -8 21 -4 24 3 4 0 13 -6 21 -9 11 -9 16 0 22 7 4 10
3 6 -2 -3 -5 1 -17 8 -27 11 -15 14 -15 18 -3 3 8 2 17 -4 20 -5 2 -4 3 3 2 7
-1 13 -11 13 -21 0 -10 6 -20 14 -23 8 -3 11 0 7 6 -3 6 -3 17 0 26 5 13 9 14
20 5 11 -9 17 -9 28 0 12 10 16 8 21 -10 6 -16 9 -18 16 -8 4 7 11 10 16 6 4
-5 2 -12 -6 -16 -7 -5 -12 -12 -11 -17 1 -5 -4 -10 -12 -12 -10 -3 -10 -2 1 6
8 6 9 12 3 16 -5 3 -13 -1 -16 -10 -8 -22 -8 -24 8 -24 8 0 16 -3 19 -7 2 -5
2 -2 1 4 -4 16 32 37 41 24 3 -5 -3 -12 -12 -15 -14 -4 -13 -4 2 -2 11 1 34
-4 50 -11 26 -12 28 -12 13 0 -10 8 -18 20 -18 27 0 10 3 10 16 -1 13 -10 17
-10 25 2 5 8 9 10 9 5 0 -5 7 -3 15 4 9 8 15 9 15 2 0 -6 -5 -14 -10 -17 -6
-4 -8 -11 -4 -16 4 -6 10 -6 18 0 7 6 16 9 20 6 3 -3 2 1 -4 7 -15 18 -12 24
10 24 15 0 18 -5 14 -18 -3 -10 0 -18 6 -18 6 0 8 5 5 10 -9 14 8 12 24 -2 8
-7 11 -8 8 -3 -6 13 20 51 29 42 4 -4 1 -14 -7 -23 -13 -16 -12 -16 8 -4 12 8
19 18 17 22 -9 14 13 8 26 -7 7 -8 18 -15 24 -15 6 0 4 5 -4 10 -13 9 -8 14
12 11 4 0 10 8 13 19 4 11 11 18 16 15 5 -3 18 -1 29 5 11 6 20 7 20 1 0 -10
-30 -25 -45 -22 -5 2 -7 -1 -3 -5 4 -4 1 -12 -7 -18 -11 -8 -12 -15 -4 -26 9
-13 10 -13 6 2 -3 9 0 19 8 21 20 8 27 -4 12 -22 -11 -14 -10 -14 6 -2 13 10
14 17 6 27 -8 9 -5 15 10 23 18 10 21 29 12 71 -2 10 -41 9 -41 -1 0 -5 3 -8
8 -8 18 3 32 -2 32 -11 0 -15 -43 -5 -48 11 -7 21 -20 27 -54 23 -26 -3 -28
-2 -18 11 6 8 10 20 7 27 -4 9 -6 8 -6 -3 -1 -9 -8 -22 -16 -29 -17 -14 -19
-7 -5 20 12 23 2 30 -25 19 -17 -6 -17 -8 -2 -8 9 -1 17 -5 17 -11 0 -5 -6 -9
-12 -7 -7 1 -12 -3 -11 -10 2 -6 -6 -11 -17 -10 -20 1 -29 17 -10 17 6 0 10 5
10 12 0 9 -3 9 -12 0 -7 -7 -16 -12 -22 -12 -6 0 -5 5 2 12 17 17 15 24 -8 25
-10 1 -22 -6 -25 -16 -5 -17 -35 -25 -35 -9 0 4 3 8 8 8 4 0 13 10 21 22 l14
23 -25 -22 c-27 -26 -47 -31 -28 -8 6 8 10 20 7 27 -4 8 -6 7 -6 -4 -1 -9 -6
-20 -13 -24 -8 -5 -9 -1 -4 12 6 15 5 16 -5 7 -10 -10 -9 -15 1 -28 7 -8 9
-15 5 -15 -4 0 -2 -7 5 -15 7 -8 17 -12 22 -9 6 4 5 -2 -1 -14 -16 -31 -13
-41 4 -12 9 15 14 19 15 10 0 -13 1 -13 10 0 5 8 10 11 10 6 0 -5 7 -3 16 4
12 11 15 11 12 -1 -2 -8 3 -13 10 -11 9 1 11 -2 6 -10 -5 -8 -1 -8 12 2 19 14
19 14 1 -7 -16 -18 -21 -29 -26 -62 -1 -3 -8 4 -17 15 -8 10 -13 14 -10 8 3
-6 -1 -11 -9 -11 -8 0 -12 5 -8 10 3 5 -4 4 -16 -2 -11 -7 -21 -17 -21 -24 0
-8 -3 -8 -9 1 -7 11 -9 11 -14 -2 -4 -9 -10 -16 -14 -15 -21 4 -33 -2 -27 -13
4 -7 3 -8 -5 -4 -6 4 -9 11 -6 16 3 5 -3 7 -13 5 -14 -2 -18 2 -16 18 1 12 3
27 3 32 1 6 5 4 10 -4 5 -8 6 -21 3 -30 -5 -14 -3 -14 11 -2 13 10 20 11 31 1
12 -9 15 -8 13 9 -1 15 -6 19 -18 16 -23 -8 -32 10 -19 35 12 23 -4 29 -17 6
-7 -12 -12 -12 -33 5 -15 12 -19 19 -10 18 27 -3 43 1 36 8 -11 12 -66 10 -64
-2 2 -16 -13 -45 -24 -45 -5 0 -7 4 -4 9 3 5 -4 21 -15 35 -20 25 -22 26 -35
9 -7 -10 -14 -13 -14 -8 0 6 5 16 12 23 9 9 9 12 1 12 -7 0 -15 -5 -18 -10 -5
-8 -12 -7 -22 2 -14 11 -15 10 -10 -12 4 -14 4 -19 1 -12 -3 6 -12 12 -20 12
-8 0 -14 4 -14 10 0 5 3 9 8 9 4 -1 10 0 15 1 4 1 17 3 30 4 12 1 21 8 19 15
-1 7 3 11 10 9 7 -3 13 -11 13 -19 0 -9 10 -14 28 -13 15 1 27 -3 27 -7 0 -21
35 29 36 51 1 24 1 24 -11 -4 -7 -17 -15 -24 -19 -18 -4 6 -14 8 -24 5 -15 -6
-15 -5 -3 10 12 15 12 17 -3 11 -10 -4 -15 -13 -11 -22 4 -12 3 -13 -10 -2 -8
7 -12 17 -8 24 12 18 12 36 1 36 -6 0 -8 -7 -4 -15 3 -9 -3 -19 -15 -26 -19
-10 -20 -8 -14 13 3 12 3 18 -2 13 -10 -13 -22 -13 -49 2 -16 10 -21 9 -21 -2
0 -7 6 -11 13 -8 6 2 15 -1 19 -6 3 -6 11 -9 16 -6 5 4 9 2 9 -4 0 -15 -18
-23 -25 -11 -10 16 -28 12 -21 -5 8 -22 -5 -19 -44 10 -18 13 -38 21 -44 17
-19 -12 -61 -9 -72 6 -9 12 -12 13 -19 2 -6 -9 -4 -11 5 -5 10 6 12 4 7 -9 -4
-10 -7 -20 -7 -22 0 -2 -4 -4 -10 -4 -5 0 -9 3 -9 8 4 25 -2 34 -15 23 -8 -6
-18 -11 -22 -10 -20 3 -34 -2 -34 -12 0 -8 4 -9 13 0 16 13 28 5 21 -14 -4
-10 2 -12 23 -9 15 3 33 5 40 6 6 1 9 8 6 17 -4 14 -4 14 6 1 6 -8 11 -10 11
-4 0 6 9 10 20 9 30 -2 37 -15 7 -15 -14 0 -29 -5 -32 -10 -4 -6 -10 -8 -15
-5 -4 3 -11 -2 -14 -10 -4 -12 -10 -13 -24 -6 -13 7 -23 6 -32 -2 -10 -9 -11
-9 -6 1 12 20 -12 14 -35 -10 -21 -22 -21 -22 -10 -1 14 28 -11 39 -35 16 -16
-16 -16 -16 -9 6 6 20 5 21 -13 10 -12 -7 -18 -17 -16 -21 3 -4 1 -8 -5 -8 -5
0 -9 9 -8 20 1 11 7 18 13 16 6 -2 17 1 23 7 6 6 11 7 11 2 0 -6 5 -3 11 5 9
13 10 12 5 -3 -3 -11 -2 -16 4 -12 6 3 10 13 10 22 0 9 6 13 15 9 8 -3 15 -1
15 5 0 6 4 8 9 4 5 -3 12 -1 16 5 4 6 11 8 16 5 5 -4 9 -1 9 6 0 7 3 9 7 6 3
-4 17 0 31 9 13 8 30 13 38 10 8 -3 12 -2 9 3 -3 5 4 12 15 16 11 4 17 11 14
17 -4 7 -2 8 4 4 25 -15 272 134 453 274 411 317 736 768 869 1205 135 443
167 830 104 1249 -131 870 -721 1636 -1524 1979 -145 62 -361 133 -465 153
-11 2 -31 6 -45 9 -38 8 -189 33 -245 40 -88 13 -466 12 -555 0z m1210 -655
c0 -5 -5 -10 -11 -10 -5 0 -7 5 -4 10 3 6 8 10 11 10 2 0 4 -4 4 -10z m597
-635 c0 -8 -4 -12 -9 -9 -5 3 -6 10 -3 15 9 13 12 11 12 -6z m287 -3 c3 -5 -1
-9 -9 -9 -8 0 -12 4 -9 9 3 4 7 8 9 8 2 0 6 -4 9 -8z m-353 -129 c13 -16 12
-17 -3 -4 -17 13 -22 21 -14 21 2 0 10 -8 17 -17z m309 5 c0 -4 -4 -8 -9 -8
-6 0 -12 4 -15 8 -3 5 1 9 9 9 8 0 15 -4 15 -9z m-45 -37 c3 -5 2 -12 -3 -15
-5 -3 -9 1 -9 9 0 17 3 19 12 6z m85 -1 c0 -5 -5 -10 -11 -10 -5 0 -7 5 -4 10
3 6 8 10 11 10 2 0 4 -4 4 -10z m-83 -205 c0 -8 -4 -12 -9 -9 -5 3 -6 10 -3
15 9 13 12 11 12 -6z m3 -69 c0 -2 -7 -7 -16 -10 -8 -3 -12 -2 -9 4 6 10 25
14 25 6z m191 -53 c13 -16 12 -17 -3 -4 -10 7 -18 15 -18 17 0 8 8 3 21 -13z
m-398 -68 c-3 -9 -8 -14 -10 -11 -3 3 -2 9 2 15 9 16 15 13 8 -4z m484 -160
c0 -8 -4 -12 -9 -9 -5 3 -6 10 -3 15 9 13 12 11 12 -6z m88 -285 c-3 -5 -12
-10 -18 -10 -7 0 -6 4 3 10 19 12 23 12 15 0z m120 0 c3 -6 -1 -7 -9 -4 -18 7
-21 14 -7 14 6 0 13 -4 16 -10z m-129 -240 c0 -12 -4 -16 -9 -11 -5 5 -6 14
-3 20 10 15 12 14 12 -9z m-909 -2483 c31 -22 31 -23 11 -36 -11 -7 -23 -10
-26 -7 -3 3 1 6 8 6 17 0 5 13 -15 16 -8 1 -11 -4 -8 -12 3 -8 0 -14 -7 -14
-6 0 -8 5 -4 12 5 8 2 9 -9 5 -10 -3 -17 -2 -17 2 0 12 29 23 41 16 5 -4 6 1
3 9 -3 9 -11 13 -17 9 -6 -3 -7 -1 -3 5 9 15 7 16 43 -11z m-150 -2 c0 -8 -4
-12 -9 -9 -4 3 -8 9 -8 15 0 5 4 9 8 9 5 0 9 -7 9 -15z m218 -4 c3 -5 2 -12
-3 -15 -5 -3 -9 1 -9 9 0 17 3 19 12 6z m39 1 c3 -5 -1 -9 -9 -9 -8 0 -12 4
-9 9 3 4 7 8 9 8 2 0 6 -4 9 -8z m90 -10 c3 -5 -1 -9 -9 -9 -8 0 -12 4 -9 9 3
4 7 8 9 8 2 0 6 -4 9 -8z m-277 -24 c0 -13 -1 -17 -4 -10 -3 6 -10 9 -16 5 -7
-4 -6 1 2 10 17 21 17 21 18 -5z m510 0 c-4 -23 -33 -33 -44 -16 -3 7 -1 8 5
4 6 -3 16 3 22 14 14 26 21 26 17 -2z m-1781 -11 c3 -20 -7 -22 -25 -4 -10 10
-11 9 -6 -4 4 -10 1 -20 -6 -25 -9 -5 -10 -2 -5 12 4 12 -3 7 -18 -11 -25 -29
-29 -49 -10 -51 5 0 16 -4 25 -8 9 -4 21 -6 27 -4 5 2 9 -1 9 -7 -2 -13 -30
-13 -39 0 -4 5 -12 11 -18 11 -5 1 -12 3 -15 4 -16 8 -32 3 -43 -12 -18 -24
-27 -23 -41 8 -6 14 -17 24 -24 21 -16 -6 -53 20 -43 30 4 4 11 1 15 -6 7 -10
10 -9 16 8 6 19 27 31 24 14 -3 -20 3 -29 21 -30 16 -1 19 3 16 23 -4 19 -2
23 7 17 7 -5 18 -8 25 -7 6 1 17 2 22 3 6 0 9 4 9 9 -3 19 2 23 16 12 12 -10
16 -9 21 3 7 20 37 15 40 -6z m975 6 c13 -16 12 -17 -3 -4 -17 13 -22 21 -14
21 2 0 10 -8 17 -17z m402 -8 c-3 -9 -8 -14 -10 -11 -3 3 -2 9 2 15 9 16 15
13 8 -4z m-177 -7 c4 -7 4 -10 -1 -6 -4 4 -15 2 -24 -5 -14 -11 -14 -10 -2 6
16 20 18 21 27 5z m100 -14 c1 -9 0 -13 -4 -10 -3 4 -7 14 -8 22 -1 9 0 13 4
10 3 -4 7 -14 8 -22z m-1072 1 c-4 -8 -11 -15 -16 -15 -6 0 -5 6 2 15 7 8 14
15 16 15 2 0 1 -7 -2 -15z m1097 -8 c-10 -9 -11 -8 -5 6 3 10 9 15 12 12 3 -3
0 -11 -7 -18z m132 3 c3 -11 0 -23 -5 -27 -7 -4 -8 -1 -3 7 6 10 4 12 -8 7
-14 -5 -15 -3 -4 13 15 24 14 24 20 0z m-1193 0 c0 -5 -2 -10 -4 -10 -3 0 -8
5 -11 10 -3 6 -1 10 4 10 6 0 11 -4 11 -10z m1244 1 c3 -5 0 -11 -7 -14 -8 -3
-14 1 -14 9 0 16 13 19 21 5z m379 -10 c-2 -6 2 -11 9 -11 6 0 8 -3 5 -7 -4
-3 -16 2 -26 12 -20 17 -20 17 -15 -10 4 -22 2 -26 -11 -21 -10 3 -14 2 -10
-5 4 -6 14 -8 22 -5 9 4 11 2 7 -6 -4 -7 -3 -8 4 -4 6 4 8 14 5 24 -7 16 -5
16 18 0 17 -11 31 -13 40 -7 12 7 12 9 -1 9 -12 1 -11 3 3 11 13 7 22 7 31 0
7 -6 15 -10 17 -8 2 1 1 -2 -4 -8 -5 -6 -11 -5 -16 4 -7 11 -10 9 -16 -8 -3
-12 -10 -19 -15 -16 -4 3 -11 -2 -14 -11 -4 -11 -10 -13 -19 -7 -21 16 -56 12
-70 -8 -12 -17 -16 -17 -26 -5 -14 16 1 31 22 21 6 -4 3 1 -7 9 -11 9 -14 16
-8 16 7 0 11 3 10 8 -1 4 4 17 12 29 15 23 57 26 53 4z m42 9 c9 7 15 8 19 1
4 -6 -3 -15 -14 -21 -12 -6 -18 -16 -14 -23 4 -7 3 -8 -1 -4 -5 4 -10 20 -12
35 -1 15 0 21 3 14 4 -9 9 -10 19 -2z m-745 -20 c0 -5 -5 -10 -11 -10 -5 0 -7
5 -4 10 3 6 8 10 11 10 2 0 4 -4 4 -10z m417 -24 c-2 -5 -9 -11 -15 -12 -7 -1
-8 0 -2 3 13 6 3 23 -13 19 -7 -1 -9 -1 -4 1 4 3 4 9 1 15 -3 5 3 4 15 -4 12
-7 20 -17 18 -22z m-1262 -5 c-6 -5 -25 10 -25 20 0 5 6 4 14 -3 8 -7 12 -15
11 -17z m122 1 c0 -10 -6 -19 -13 -19 -9 0 -9 5 -1 19 7 10 13 18 14 18 1 0 1
-8 0 -18z m950 7 c-18 -10 -18 -11 0 -26 13 -10 15 -16 6 -19 -16 -7 -17 -25
-2 -21 6 1 14 -5 16 -13 3 -9 1 -11 -4 -5 -11 14 -22 13 -59 -8 -26 -13 -34
-14 -43 -3 -6 7 -8 16 -4 19 3 4 2 7 -4 7 -6 0 -16 -7 -23 -15 -9 -11 -16 -12
-26 -4 -7 6 -19 7 -26 3 -18 -11 -48 -12 -54 -2 -3 5 -12 4 -20 -3 -11 -9 -13
-9 -9 2 3 8 19 22 37 32 25 14 29 15 18 2 -7 -8 -10 -18 -6 -22 3 -4 13 2 21
13 8 11 15 14 15 7 0 -7 5 -13 11 -13 6 0 8 9 4 23 -4 17 -2 16 10 -6 16 -27
17 -28 36 -12 10 10 16 22 12 28 -3 6 -1 7 5 3 6 -4 9 -12 6 -20 -3 -7 1 -13
8 -13 7 0 22 -4 33 -8 16 -6 15 -3 -5 14 -19 16 -20 20 -6 14 13 -4 17 -3 12
5 -4 7 -2 12 4 12 7 0 10 -7 7 -15 -9 -22 7 -26 21 -5 9 15 8 19 -5 24 -12 5
-13 9 -3 21 7 8 18 15 24 15 6 0 3 -5 -7 -11z m92 1 c-6 -5 -18 -6 -26 -3 -19
8 -16 11 13 11 17 0 22 -3 13 -8z m-164 -10 c-3 -5 -1 -10 6 -10 7 0 10 -3 6
-6 -9 -9 -28 6 -22 17 4 5 8 9 11 9 3 0 2 -4 -1 -10z m-955 -4 c0 -3 -4 -8
-10 -11 -5 -3 -10 -1 -10 4 0 6 5 11 10 11 6 0 10 -2 10 -4z m116 -11 c-1 -8
-6 -18 -11 -22 -4 -4 -5 -2 -1 5 4 7 2 12 -6 12 -9 0 -9 3 2 10 19 12 19 13
16 -5z m80 -10 c1 -8 -2 -13 -7 -9 -5 3 -9 0 -9 -7 0 -7 -3 -9 -6 -6 -4 4 -2
13 4 20 7 8 10 17 7 20 -3 4 -2 5 2 2 4 -3 8 -12 9 -20z m61 0 c0 -8 -4 -12
-9 -9 -4 3 -8 0 -8 -7 0 -7 -3 -9 -6 -6 -4 4 -1 13 6 22 15 19 17 19 17 0z
m557 0 c-7 -18 -20 -19 -30 -3 -4 6 -3 8 4 4 6 -3 13 -2 17 4 9 15 15 12 9 -5z
m-494 -9 c-7 -7 -13 -7 -20 0 -6 6 -3 10 10 10 13 0 16 -4 10 -10z m55 4 c3
-5 1 -10 -4 -10 -6 0 -11 5 -11 10 0 6 2 10 4 10 3 0 8 -4 11 -10z m65 -11 c0
-5 -8 -9 -17 -8 -11 0 -13 3 -5 6 6 2 9 10 6 15 -4 7 -2 8 4 4 7 -4 12 -11 12
-17z m472 -1 c-7 -7 -12 -8 -12 -2 0 14 12 26 19 19 2 -3 -1 -11 -7 -17z m486
7 c3 -3 -5 -4 -19 -1 -13 2 -30 -1 -37 -7 -9 -7 -11 -6 -6 7 6 15 47 16 62 1z
m-848 1 c0 -2 -7 -7 -16 -10 -8 -3 -12 -2 -9 4 6 10 25 14 25 6z m-339 -33
c-8 -15 -10 -15 -11 -2 0 17 10 32 18 25 2 -3 -1 -13 -7 -23z m432 20 c-7 -2
-13 -12 -13 -21 0 -10 3 -13 8 -7 8 12 62 16 62 5 0 -4 -8 -14 -17 -21 -9 -8
-14 -9 -10 -3 7 13 -17 27 -27 16 -9 -8 -37 -12 -33 -4 2 4 7 15 10 25 4 9 12
17 19 16 10 0 10 -2 1 -6z m44 1 c-3 -3 -12 -4 -19 -1 -8 3 -5 6 6 6 11 1 17
-2 13 -5z m-281 -17 c8 3 14 1 14 -4 0 -13 -40 -49 -41 -37 0 5 -2 19 -3 32
-2 14 1 19 7 13 5 -5 16 -7 23 -4z m-606 -7 c0 -5 -2 -10 -4 -10 -3 0 -8 5
-11 10 -3 6 -1 10 4 10 6 0 11 -4 11 -10z"/>
<path d="M4760 1296 c0 -2 8 -10 18 -17 15 -13 16 -12 3 4 -13 16 -21 21 -21
13z"/>
<path d="M3351 1243 c4 -23 -4 -30 -31 -28 -16 1 -27 -2 -24 -7 3 -5 0 -16 -7
-24 -10 -12 -14 -12 -20 -2 -5 7 -9 9 -9 3 0 -5 4 -17 10 -25 7 -12 12 -12 29
4 12 11 21 15 21 11 0 -5 11 6 25 25 13 18 22 37 19 41 -6 11 -14 12 -13 2z
m-11 -38 c0 -1 -14 -12 -32 -25 l-31 -23 19 25 c10 14 24 25 31 25 7 0 13 -1
13 -2z"/>
<path d="M5261 1197 c-8 -10 -7 -14 2 -14 8 0 14 6 14 14 0 7 -1 13 -2 13 -2
0 -8 -6 -14 -13z"/>
<path d="M4756 1101 c-4 -5 -2 -12 3 -15 5 -4 12 -2 15 3 4 5 2 12 -3 15 -5 4
-12 2 -15 -3z"/>
<path d="M4200 1090 c-9 -6 -10 -10 -3 -10 6 0 15 5 18 10 8 12 4 12 -15 0z"/>
<path d="M4695 1340 c-3 -5 -1 -10 4 -10 6 0 11 5 11 10 0 6 -2 10 -4 10 -3 0
-8 -4 -11 -10z"/>
<path d="M4767 1343 c-3 -4 7 -17 22 -27 l26 -20 -20 25 c-11 13 -21 25 -21
27 -1 2 -4 0 -7 -5z"/>
<path d="M4963 1339 c9 -6 14 -15 11 -21 -4 -7 -2 -8 5 -4 14 9 -3 36 -23 36
-6 0 -3 -5 7 -11z"/>
<path d="M5130 1339 c0 -5 5 -7 10 -4 6 3 10 8 10 11 0 2 -4 4 -10 4 -5 0 -10
-5 -10 -11z"/>
<path d="M5216 1317 c3 -10 9 -15 12 -12 3 3 0 11 -7 18 -10 9 -11 8 -5 -6z"/>
<path d="M3126 1302 c-3 -5 1 -9 9 -9 8 0 12 4 9 9 -3 4 -7 8 -9 8 -2 0 -6 -4
-9 -8z"/>
<path d="M3182 1297 c10 -8 14 -18 10 -22 -4 -5 -1 -5 6 -1 17 10 15 14 -10
26 -21 10 -21 10 -6 -3z"/>
<path d="M4537 1297 c-9 -23 24 -31 42 -10 15 15 15 16 -1 4 -13 -10 -18 -9
-26 5 -8 14 -10 14 -15 1z"/>
<path d="M5024 1294 c4 -11 -1 -18 -14 -21 -29 -8 -25 -24 4 -19 33 6 54 -18
29 -33 -10 -6 -13 -11 -6 -11 6 0 15 5 18 11 4 5 12 8 18 6 15 -5 16 -30 3
-39 -6 -4 -7 -10 -3 -14 3 -4 14 -1 22 6 13 11 13 15 3 21 -10 7 -10 9 2 9 13
0 13 1 0 10 -12 7 -10 9 7 7 16 -1 19 -5 12 -13 -6 -8 -6 -14 -1 -18 6 -3 13
1 16 10 9 23 8 24 -19 34 -14 5 -25 15 -25 22 0 9 3 9 11 -2 9 -13 10 -13 5 0
-3 8 -9 23 -12 33 -4 9 -10 17 -16 17 -5 0 -4 -8 1 -19 10 -18 6 -31 -11 -31
-5 0 -6 4 -3 10 3 5 1 18 -4 27 -10 17 -10 17 -11 0 0 -10 -5 -15 -10 -12 -6
4 -8 11 -5 16 4 5 1 9 -5 9 -7 0 -9 -7 -6 -16z m33 -31 c0 -8 -4 -10 -12 -3
-7 5 -16 6 -20 2 -5 -4 -5 -2 -2 4 9 15 34 13 34 -3z"/>
<path d="M5310 1302 c0 -5 7 -9 15 -9 8 0 12 4 9 9 -3 4 -9 8 -15 8 -5 0 -9
-4 -9 -8z"/>
<path d="M5350 1301 c0 -6 4 -12 8 -15 5 -3 9 1 9 9 0 8 -4 15 -9 15 -4 0 -8
-4 -8 -9z"/>
<path d="M2940 1280 c-12 -7 -10 -9 7 -7 12 0 19 5 17 9 -6 10 -6 10 -24 -2z"/>
<path d="M3019 1288 c-5 -19 -6 -37 -1 -37 20 3 25 -2 12 -11 -8 -5 -10 -10
-4 -10 7 0 20 12 30 28 14 22 15 25 1 14 -17 -14 -41 -7 -32 9 4 5 4 9 1 9 -3
0 -6 -1 -7 -2z"/>
<path d="M3228 1283 c7 -3 16 -2 19 1 4 3 -2 6 -13 5 -11 0 -14 -3 -6 -6z"/>
<path d="M3266 1275 c4 -8 11 -15 16 -15 6 0 5 6 -2 15 -7 8 -14 15 -16 15 -2
0 -1 -7 2 -15z"/>
<path d="M5506 1282 c-3 -5 1 -9 9 -9 8 0 12 4 9 9 -3 4 -7 8 -9 8 -2 0 -6 -4
-9 -8z"/>
<path d="M3100 1264 c12 -20 14 -20 32 -5 23 20 23 24 0 12 -13 -7 -23 -6 -32
2 -10 10 -10 8 0 -9z"/>
<path d="M3166 1264 c-4 -9 -4 -19 -1 -22 3 -3 5 0 5 7 0 7 4 9 10 6 6 -3 7 1
4 9 -8 20 -10 20 -18 0z"/>
<path d="M5422 1260 c0 -14 2 -19 5 -12 2 6 2 18 0 25 -3 6 -5 1 -5 -13z"/>
<path d="M5446 1263 c-6 -14 -5 -15 5 -6 7 7 10 15 7 18 -3 3 -9 -2 -12 -12z"/>
<path d="M5370 1261 c0 -5 7 -12 16 -15 24 -9 27 -7 10 9 -17 17 -26 19 -26 6z"/>
<path d="M5573 1255 c0 -7 7 -11 15 -7 11 4 13 1 7 -8 -5 -9 -4 -11 3 -6 16
10 15 14 -6 25 -14 7 -19 6 -19 -4z"/>
<path d="M5675 1260 c3 -5 8 -10 11 -10 2 0 4 5 4 10 0 6 -5 10 -11 10 -5 0
-7 -4 -4 -10z"/>
<path d="M3500 1250 c0 -5 -8 -7 -17 -3 -15 5 -16 3 -6 -7 15 -16 46 -23 37
-8 -4 6 0 14 7 19 11 7 10 9 -3 9 -10 0 -18 -4 -18 -10z"/>
<path d="M4948 1235 c9 -13 20 -21 24 -19 12 8 -3 32 -22 37 -19 5 -19 4 -2
-18z"/>
<path d="M5528 1253 c6 -2 9 -10 6 -15 -4 -7 -2 -8 5 -4 13 9 5 26 -12 25 -9
0 -8 -2 1 -6z"/>
<path d="M2873 1235 c0 -8 4 -12 9 -9 5 3 6 10 3 15 -9 13 -12 11 -12 -6z"/>
<path d="M3139 1236 c10 -12 3 -14 -40 -11 -34 2 -47 0 -38 -6 8 -5 23 -6 34
-2 17 5 18 4 6 -11 -9 -10 -10 -16 -2 -16 6 0 11 4 11 9 0 14 40 7 49 -8 6 -9
3 -21 -10 -34 -10 -12 -19 -25 -19 -29 0 -5 11 3 25 18 18 20 22 31 15 44 -10
19 4 40 27 40 7 0 13 5 13 11 0 7 -10 5 -25 -5 -23 -15 -26 -15 -31 -1 -3 8
-11 15 -16 15 -6 0 -6 -6 1 -14z"/>
<path d="M5455 1240 c-4 -6 -2 -17 4 -24 6 -7 9 -22 6 -32 -4 -11 1 -6 10 9 9
16 14 34 11 40 -2 7 -5 4 -5 -6 -1 -10 -5 -16 -11 -12 -5 3 -7 12 -3 20 6 17
-3 20 -12 5z"/>
<path d="M5630 1236 c14 -18 13 -19 -2 -13 -26 9 -22 0 5 -14 12 -6 19 -8 15
-4 -4 4 0 14 10 22 9 8 11 12 4 8 -7 -4 -21 -1 -30 7 -16 12 -16 11 -2 -6z"/>
<path d="M3565 1230 c-4 -6 -10 -8 -15 -5 -5 3 -11 1 -15 -5 -3 -5 -1 -10 6
-10 7 0 10 -3 7 -6 -4 -3 -15 -1 -27 5 -13 7 -22 8 -26 1 -9 -14 -21 -12 -38
5 -13 13 -17 13 -27 0 -7 -8 -16 -13 -20 -10 -15 9 -23 -16 -10 -28 10 -10 12
-8 6 8 -5 16 -3 16 13 -5 20 -26 79 -36 94 -16 6 8 10 8 13 0 4 -9 13 -8 35 3
28 14 29 16 14 33 -13 14 -14 20 -3 26 7 4 10 4 6 0 -9 -11 14 -36 26 -28 5 3
1 -6 -10 -20 -10 -14 -25 -23 -32 -21 -8 4 -10 0 -6 -12 6 -15 11 -13 36 13
30 29 30 30 13 56 -18 28 -30 32 -40 16z m-113 -44 c-3 -16 -1 -16 22 -1 17
12 30 14 42 7 9 -5 26 -7 38 -4 12 3 18 2 15 -2 -9 -10 -69 -14 -63 -5 8 14
-9 11 -32 -5 -23 -16 -37 -10 -42 18 -2 11 1 16 10 14 7 -3 12 -13 10 -22z"/>
<path d="M5499 1203 c-8 -20 -27 -45 -44 -55 -16 -10 -25 -18 -19 -18 30 0 99
88 82 105 -2 3 -11 -12 -19 -32z"/>
<path d="M2830 1215 c5 -7 6 -16 2 -21 -4 -5 -3 -5 2 -1 15 12 15 34 0 34 -9
0 -11 -4 -4 -12z"/>
<path d="M2926 1218 c4 -7 52 -4 59 4 3 3 -10 4 -29 4 -19 -1 -32 -4 -30 -8z"/>
<path d="M2992 1214 c-7 -8 -8 -14 -3 -14 10 0 25 19 20 25 -2 1 -10 -3 -17
-11z"/>
<path d="M5541 1216 c-7 -8 -8 -17 -3 -20 15 -9 46 0 50 15 2 8 0 10 -5 4 -4
-5 -17 -11 -28 -13 -20 -3 -20 -2 -1 13 11 8 15 15 9 15 -6 0 -16 -6 -22 -14z"/>
<path d="M2733 1205 c0 -8 4 -12 9 -9 5 3 6 10 3 15 -9 13 -12 11 -12 -6z"/>
<path d="M5190 1210 c-8 -5 -18 -6 -23 -3 -5 3 -3 -3 3 -14 14 -22 46 -27 54
-8 7 19 -16 36 -34 25z m24 -21 c-3 -5 -10 -7 -15 -3 -5 3 -7 10 -3 15 3 5 10
7 15 3 5 -3 7 -10 3 -15z"/>
<path d="M5756 1207 c3 -10 9 -15 12 -12 3 3 0 11 -7 18 -10 9 -11 8 -5 -6z"/>
<path d="M5855 1211 c-3 -5 -2 -12 3 -15 5 -3 9 1 9 9 0 17 -3 19 -12 6z"/>
<path d="M2865 1199 c-3 -4 2 -6 10 -5 21 3 28 13 10 13 -9 0 -18 -4 -20 -8z"/>
<path d="M2912 1205 c4 -4 3 -14 -4 -22 -6 -7 -9 -15 -7 -18 3 -2 10 4 17 15
9 15 9 21 -1 26 -6 4 -9 4 -5 -1z"/>
<path d="M3019 1208 c0 -2 -2 -14 -5 -28 -3 -18 -2 -21 5 -10 5 8 7 18 5 22
-3 4 3 8 13 8 11 0 19 -8 20 -19 1 -14 -3 -18 -13 -14 -8 3 -14 1 -14 -5 0
-14 33 -8 38 6 2 7 9 9 15 5 7 -3 3 3 -7 15 -15 18 -53 31 -57 20z"/>
<path d="M5733 1185 c0 -8 4 -15 9 -15 4 0 8 4 8 9 0 6 -4 12 -8 15 -5 3 -9
-1 -9 -9z"/>
<path d="M2976 1178 c3 -5 10 -6 15 -3 13 9 11 12 -6 12 -8 0 -12 -4 -9 -9z"/>
<path d="M3130 1179 c0 -5 -4 -8 -9 -4 -5 3 -16 -4 -24 -15 -7 -11 -17 -17
-20 -13 -4 3 -7 3 -7 0 0 -3 9 -11 19 -16 16 -9 18 -8 14 9 -4 14 -1 19 8 15
8 -3 20 4 27 15 7 12 8 20 2 20 -5 0 -10 -5 -10 -11z"/>
<path d="M5113 1169 c1 -19 29 -19 35 -1 2 7 8 10 13 6 5 -3 9 -1 9 4 0 5 -13
9 -29 8 -21 0 -29 -6 -28 -17z"/>
<path d="M5515 1180 c-3 -6 -1 -18 5 -27 9 -16 10 -15 5 4 -5 18 -3 22 9 17 9
-3 16 -4 16 -1 0 10 -30 16 -35 7z"/>
<path d="M5602 1176 c7 -8 15 -12 17 -11 5 6 -10 25 -20 25 -5 0 -4 -6 3 -14z"/>
<path d="M5640 1180 c-8 -5 0 -7 18 -7 17 1 29 4 26 6 -8 9 -31 9 -44 1z"/>
<path d="M5817 1175 c-4 -8 -3 -16 1 -19 4 -3 9 4 9 15 2 23 -3 25 -10 4z"/>
<path d="M2770 1159 c0 -5 5 -7 10 -4 6 3 10 8 10 11 0 2 -4 4 -10 4 -5 0 -10
-5 -10 -11z"/>
<path d="M2930 1157 c0 -2 6 -10 14 -16 11 -9 16 -9 22 1 4 7 4 10 -1 6 -4 -4
-14 -3 -22 3 -7 6 -13 9 -13 6z"/>
<path d="M2977 1141 c-4 -17 -3 -21 5 -13 5 5 8 16 6 23 -3 8 -7 3 -11 -10z"/>
<path d="M5551 1144 c0 -11 3 -14 6 -6 3 7 2 16 -1 19 -3 4 -6 -2 -5 -13z"/>
<path d="M2876 1138 c3 -5 10 -6 15 -3 13 9 11 12 -6 12 -8 0 -12 -4 -9 -9z"/>
<path d="M4933 1135 c7 -18 -8 -29 -25 -18 -28 17 -36 10 -19 -18 9 -16 18
-24 19 -19 2 6 9 7 14 4 6 -4 8 -2 4 4 -3 6 -2 13 3 16 5 4 13 -4 16 -15 6
-18 9 -19 15 -8 5 8 10 21 12 29 2 8 7 18 13 22 5 4 6 10 2 15 -5 4 -12 1 -16
-6 -6 -9 -11 -10 -15 -2 -10 16 -29 13 -23 -4z m30 -31 c-7 -18 -12 -13 -18
16 -3 18 -2 20 10 10 8 -6 11 -18 8 -26z m-55 -9 c-3 -3 -9 2 -12 12 -6 14 -5
15 5 6 7 -7 10 -15 7 -18z"/>
<path d="M5490 1140 c0 -5 5 -10 10 -10 6 0 10 5 10 10 0 6 -4 10 -10 10 -5 0
-10 -4 -10 -10z"/>
<path d="M5590 1146 c0 -2 7 -7 16 -10 8 -3 12 -2 9 4 -6 10 -25 14 -25 6z"/>
<path d="M5750 1141 c0 -6 4 -13 10 -16 6 -3 7 1 4 9 -7 18 -14 21 -14 7z"/>
<path d="M3150 1120 c0 -5 5 -10 11 -10 5 0 7 5 4 10 -3 6 -8 10 -11 10 -2 0
-4 -4 -4 -10z"/>
<path d="M3239 1123 c-5 -29 -5 -53 -1 -48 7 6 12 55 6 55 -2 0 -5 -3 -5 -7z"/>
<path d="M3350 1121 c0 -5 5 -13 10 -16 6 -3 10 -2 10 4 0 5 -4 13 -10 16 -5
3 -10 2 -10 -4z"/>
<path d="M5516 1122 c-3 -5 1 -9 9 -9 8 0 12 4 9 9 -3 4 -7 8 -9 8 -2 0 -6 -4
-9 -8z"/>
<path d="M3029 1103 c-13 -16 -12 -17 4 -4 9 7 17 15 17 17 0 8 -8 3 -21 -13z"/>
<path d="M3819 1115 c-1 -3 -2 -10 -3 -17 0 -6 -7 -13 -14 -16 -8 -2 -10 3 -6
15 5 15 3 15 -7 -2 -6 -11 -19 -29 -28 -40 -14 -18 -14 -18 0 -7 9 6 20 8 24
4 5 -4 5 -1 1 6 -5 8 0 12 13 12 12 0 21 4 21 10 0 6 10 5 25 -2 13 -6 22 -15
18 -21 -4 -6 -1 -7 7 -2 10 6 10 11 -3 20 -9 7 -14 15 -11 18 3 3 -4 10 -15
17 -12 6 -22 8 -22 5z m26 -23 c-3 -3 -11 0 -18 7 -9 10 -8 11 6 5 10 -3 15
-9 12 -12z"/>
<path d="M4079 1112 c-9 -4 -15 -15 -13 -24 1 -10 -3 -18 -9 -18 -7 0 -4 -5 6
-11 23 -14 30 -7 32 31 1 17 1 30 1 29 -1 0 -8 -3 -17 -7z"/>
<path d="M3105 1100 c-3 -6 1 -7 9 -4 18 7 21 14 7 14 -6 0 -13 -4 -16 -10z"/>
<path d="M5300 1100 c0 -5 7 -7 15 -4 8 4 15 8 15 10 0 2 -7 4 -15 4 -8 0 -15
-4 -15 -10z"/>
<path d="M3464 1088 c-4 -7 -4 -10 1 -6 4 4 15 2 24 -5 14 -11 14 -10 2 6 -16
20 -18 21 -27 5z"/>
<path d="M5352 1091 c-11 -7 -11 -9 0 -14 9 -3 15 1 15 9 0 8 -1 14 -1 14 -1
0 -7 -4 -14 -9z"/>
<path d="M3056 1073 c-6 -14 -5 -15 5 -6 7 7 10 15 7 18 -3 3 -9 -2 -12 -12z"/>
<path d="M3135 1080 c3 -5 8 -10 11 -10 2 0 4 5 4 10 0 6 -5 10 -11 10 -5 0
-7 -4 -4 -10z"/>
<path d="M4254 1068 c6 -10 12 -14 14 -8 2 5 8 10 13 10 4 0 6 -6 3 -14 -3 -8
-1 -16 4 -20 7 -4 8 10 3 45 -1 3 -12 5 -25 5 -20 0 -22 -3 -12 -18z"/>
<path d="M5133 1083 c4 -3 -1 -16 -10 -27 -18 -21 -18 -21 4 -2 20 16 23 36 6
36 -4 0 -3 -3 0 -7z"/>
<path d="M5436 1078 c3 -4 11 -5 19 -1 21 7 19 12 -4 10 -11 0 -18 -5 -15 -9z"/>
<path d="M4817 1066 c-4 -10 -3 -15 3 -11 6 3 10 0 10 -7 0 -9 3 -9 10 2 9 14
14 7 11 -13 -1 -5 3 -6 9 -2 8 5 8 11 -1 21 -6 7 -15 12 -19 9 -5 -3 -10 0
-12 7 -3 7 -7 5 -11 -6z"/>
<path d="M4881 1064 c0 -11 3 -14 6 -6 3 7 2 16 -1 19 -3 4 -6 -2 -5 -13z"/>
<path d="M4970 1065 c0 -8 4 -15 10 -15 5 0 7 7 4 15 -4 8 -8 15 -10 15 -2 0
-4 -7 -4 -15z"/>
<path d="M5037 1063 c3 -7 6 -13 8 -13 1 0 7 6 13 13 8 10 6 13 -7 13 -11 0
-17 -6 -14 -13z"/>
<path d="M5233 1065 c0 -8 4 -12 9 -9 5 3 6 10 3 15 -9 13 -12 11 -12 -6z"/>
<path d="M3510 1061 c0 -6 4 -12 8 -15 5 -3 9 1 9 9 0 8 -4 15 -9 15 -4 0 -8
-4 -8 -9z"/>
<path d="M3695 1060 c3 -5 8 -10 11 -10 2 0 4 5 4 10 0 6 -5 10 -11 10 -5 0
-7 -4 -4 -10z"/>
<path d="M3830 1060 c0 -5 5 -10 11 -10 5 0 7 5 4 10 -3 6 -8 10 -11 10 -2 0
-4 -4 -4 -10z"/>
<path d="M3936 1054 c-3 -9 -2 -12 5 -9 5 4 18 1 27 -6 13 -11 12 -8 -2 9 -23
26 -22 26 -30 6z"/>
<path d="M4030 1050 c9 -17 30 -20 30 -4 0 3 -4 2 -10 -1 -5 -3 -10 1 -10 9 0
9 -5 16 -10 16 -7 0 -7 -7 0 -20z"/>
<path d="M4500 1055 c-7 -9 -11 -17 -9 -20 3 -2 10 5 17 15 14 24 10 26 -8 5z"/>
<path d="M4715 1060 c-3 -5 -2 -10 4 -10 5 0 13 5 16 10 3 6 2 10 -4 10 -5 0
-13 -4 -16 -10z"/>
<path d="M4930 1063 c5 -2 8 -9 5 -13 -3 -5 -1 -11 4 -14 5 -4 8 2 7 11 -2 9
-8 18 -15 19 -6 1 -7 0 -1 -3z"/>
<path d="M5275 1060 c3 -5 8 -10 11 -10 2 0 4 5 4 10 0 6 -5 10 -11 10 -5 0
-7 -4 -4 -10z"/>
<path d="M3475 1051 c-3 -5 -2 -12 3 -15 5 -3 9 1 9 9 0 17 -3 19 -12 6z"/>
<path d="M3545 1040 c-3 -6 1 -7 9 -4 18 7 21 14 7 14 -6 0 -13 -4 -16 -10z"/>
<path d="M3720 1040 c-9 -6 -10 -10 -3 -10 6 0 15 5 18 10 8 12 4 12 -15 0z"/>
<path d="M3876 1033 c-6 -14 -5 -15 5 -6 7 7 10 15 7 18 -3 3 -9 -2 -12 -12z"/>
<path d="M4095 1040 c-3 -5 -1 -10 4 -10 6 0 11 5 11 10 0 6 -2 10 -4 10 -3 0
-8 -4 -11 -10z"/>
<path d="M5005 1040 c-3 -6 1 -7 9 -4 18 7 21 14 7 14 -6 0 -13 -4 -16 -10z"/>
<path d="M4580 1026 c0 -2 8 -10 18 -17 15 -13 16 -12 3 4 -13 16 -21 21 -21
13z"/>
</g>
</svg>
