<?xml version="1.0" standalone="no"?>
<!DOCTYPE svg PUBLIC "-//W3C//DTD SVG 20010904//EN"
 "http://www.w3.org/TR/2001/REC-SVG-20010904/DTD/svg10.dtd">
<svg version="1.0" xmlns="http://www.w3.org/2000/svg"
 width="436.000000pt" height="436.000000pt" viewBox="0 0 436.000000 436.000000"
 preserveAspectRatio="xMidYMid meet">

<g transform="translate(0.000000,436.000000) scale(0.100000,-0.100000)"
fill="#000000" stroke="none">
<path d="M1870 3713 c-116 -17 -260 -69 -260 -93 0 -6 6 -19 13 -30 11 -18 8
-23 -21 -46 -18 -14 -42 -45 -54 -67 -11 -23 -34 -58 -49 -77 -37 -44 -37 -82
-3 -109 51 -40 59 -38 144 42 86 81 173 132 244 142 32 5 46 13 54 30 6 13 31
38 56 57 38 28 45 39 48 72 3 38 12 48 51 60 10 3 15 10 12 16 -6 9 -179 12
-235 3z"/>
<path d="M2300 3698 c-24 -10 -23 -11 27 -28 52 -19 103 -15 110 6 9 28 -87
43 -137 22z"/>
<path d="M2597 3565 c-74 -20 -97 -39 -95 -79 1 -43 -20 -77 -67 -106 l-36
-22 20 -32 c11 -17 37 -40 58 -52 30 -16 39 -27 41 -52 2 -18 -1 -32 -7 -32
-6 0 -36 -22 -66 -50 -30 -27 -57 -50 -59 -50 -2 0 1 14 7 31 11 29 10 32 -30
67 -23 20 -47 49 -52 65 -11 28 -37 34 -89 20 -20 -5 -23 -11 -18 -34 4 -22
-1 -34 -24 -58 -36 -35 -41 -81 -10 -81 25 0 60 34 60 58 0 9 4 23 9 30 15 24
41 -14 34 -48 -6 -34 10 -60 38 -60 11 0 19 -4 19 -10 0 -5 -11 -10 -25 -10
-42 0 -31 -34 20 -64 25 -15 45 -33 45 -41 0 -22 -44 -29 -97 -15 -44 11 -48
10 -65 -12 -20 -24 -38 -62 -38 -79 0 -5 16 -26 35 -48 26 -29 45 -40 75 -44
60 -8 107 8 114 39 11 42 87 109 146 129 59 19 70 14 70 -37 0 -22 5 -28 23
-28 27 1 50 17 66 48 6 12 19 22 28 22 9 0 24 7 33 15 9 8 36 26 61 39 24 13
78 42 119 64 41 22 111 53 155 68 71 25 95 28 207 28 71 1 128 3 128 5 0 2
-15 24 -34 50 -67 90 -207 213 -344 300 -51 32 -54 33 -98 21 -31 -9 -50 -22
-61 -41 -22 -37 -32 -36 -65 5 -19 24 -47 42 -88 57 -33 12 -63 26 -66 30 -7
11 -18 10 -77 -6z m103 -200 c8 -9 31 -25 52 -36 21 -11 38 -25 38 -32 -1 -17
-46 -88 -52 -82 -3 3 -26 1 -51 -5 -33 -7 -54 -7 -74 1 l-28 12 28 8 c60 17
71 49 40 114 -16 34 -16 37 2 72 l20 36 6 -36 c3 -20 12 -43 19 -52z"/>
<path d="M1401 3530 c-30 -17 -70 -42 -90 -57 -20 -16 -52 -39 -71 -51 -65
-44 -100 -84 -100 -114 0 -41 -22 -87 -71 -151 l-43 -56 -34 14 c-32 14 -35
13 -58 -12 -40 -43 -124 -188 -172 -297 -38 -87 -102 -300 -102 -342 0 -10 12
-14 39 -14 41 0 41 0 55 -62 16 -71 42 2 32 86 l-7 53 45 37 c44 36 46 39 46
91 0 53 1 54 48 86 26 18 59 43 74 57 18 17 34 23 49 19 16 -4 33 4 62 29 22
18 44 34 49 34 16 0 7 23 -18 47 -21 19 -24 26 -14 38 18 22 33 19 76 -15 25
-20 47 -30 63 -28 33 4 39 37 11 63 -28 26 -25 49 10 62 46 17 49 41 10 73
-31 25 -34 32 -31 74 3 46 2 47 -25 44 -26 -3 -29 1 -38 40 -7 32 -6 46 4 55
10 9 14 9 17 -1 3 -7 15 -25 27 -39 l22 -25 17 25 c21 33 51 49 102 56 l40 6
7 68 c3 38 11 82 17 99 6 17 10 33 8 34 -1 2 -27 -10 -56 -26z"/>
<path d="M1928 3433 c-44 -11 3 -63 57 -63 16 0 50 10 75 21 l45 21 -30 14
c-29 13 -111 17 -147 7z"/>
<path d="M2414 2750 c-44 -26 -55 -28 -85 -20 -45 13 -60 7 -86 -37 -12 -21
-56 -78 -97 -128 -42 -49 -87 -111 -101 -136 -21 -40 -23 -51 -14 -78 6 -17
14 -31 17 -31 25 0 472 427 472 450 0 20 -56 9 -106 -20z"/>
<path d="M3522 2427 l-174 -174 95 -6 c108 -6 158 -26 218 -87 64 -65 99 -156
115 -305 l7 -70 24 95 c36 141 43 356 15 465 -29 115 -95 255 -121 255 -3 0
-84 -78 -179 -173z"/>
<path d="M713 2303 c-4 -10 -24 -34 -45 -54 -21 -20 -38 -42 -38 -51 0 -16 55
-169 72 -201 5 -11 28 -39 50 -63 22 -24 43 -58 47 -76 6 -27 18 -38 78 -70
154 -83 301 -84 466 -1 53 26 54 43 3 43 -30 0 -35 4 -51 46 -14 37 -25 50
-59 65 -22 10 -57 19 -76 19 -30 0 -42 7 -74 45 -34 42 -40 45 -72 39 -22 -4
-51 0 -84 12 l-50 18 -38 -37 c-21 -20 -43 -37 -49 -37 -12 0 -56 94 -72 155
-15 56 -14 125 2 125 7 0 36 -18 66 -40 53 -40 91 -49 121 -30 20 12 11 20
-80 69 -82 45 -107 50 -117 24z"/>
<path d="M3091 1915 l-94 -13 -373 -373 c-206 -206 -369 -376 -364 -377 6 -2
45 12 88 32 247 113 456 199 583 241 133 44 152 48 249 49 131 1 180 -15 242
-82 38 -41 60 -83 85 -162 7 -24 66 53 122 161 39 74 52 110 57 160 10 97 -9
170 -59 231 -107 129 -269 169 -536 133z"/>
<path d="M2965 1215 c-100 -23 -283 -80 -415 -128 -153 -56 -234 -84 -415
-143 l-140 -46 -132 -131 c-73 -73 -133 -134 -133 -138 0 -8 103 -35 203 -54
106 -20 422 -20 536 0 333 58 699 241 788 392 35 60 38 138 7 180 -52 70 -172
98 -299 68z"/>
</g>
</svg>
